<?xml version="1.0" encoding="UTF-8"?>
<svg version="1.1" xmlns="http://www.w3.org/2000/svg" width="113" height="100">
<path d="M0 0 C37.29 0 74.58 0 113 0 C113 33 113 66 113 100 C75.71 100 38.42 100 0 100 C0 67 0 34 0 0 Z " fill="#EEEBF6" transform="translate(0,0)"/>
<path d="M0 0 C1.88548487 0.95376721 3.74639157 1.95741112 5.58203125 3.00390625 C6.59587891 3.57947266 7.60972656 4.15503906 8.65429688 4.74804688 C9.69650391 5.34681641 10.73871094 5.94558594 11.8125 6.5625 C12.87404297 7.16513672 13.93558594 7.76777344 15.02929688 8.38867188 C22.84284319 12.84284319 22.84284319 12.84284319 24 14 C24.08685603 15.56172745 24.10702219 17.12729344 24.09765625 18.69140625 C24.09443359 19.63564453 24.09121094 20.57988281 24.08789062 21.55273438 C24.07532227 23.04256836 24.07532227 23.04256836 24.0625 24.5625 C24.05798828 25.55958984 24.05347656 26.55667969 24.04882812 27.58398438 C24.03700007 30.05604849 24.02051849 32.52799518 24 35 C22.35 35 20.7 35 19 35 C18.67 29.39 18.34 23.78 18 18 C16.48148438 18.88945313 14.96296875 19.77890625 13.3984375 20.6953125 C11.39123207 21.83960718 9.3833857 22.98277812 7.375 24.125 C6.37597656 24.71410156 5.37695312 25.30320312 4.34765625 25.91015625 C3.37441406 26.45800781 2.40117188 27.00585938 1.3984375 27.5703125 C0.50817871 28.08352051 -0.38208008 28.59672852 -1.29931641 29.12548828 C-5.78655625 30.57850701 -8.76482689 28.62827742 -12.79248047 26.57958984 C-13.72463379 26.04543457 -14.65678711 25.5112793 -15.6171875 24.9609375 C-16.63554688 24.38085938 -17.65390625 23.80078125 -18.703125 23.203125 C-19.74984375 22.59984375 -20.7965625 21.9965625 -21.875 21.375 C-22.94492187 20.76398437 -24.01484375 20.15296875 -25.1171875 19.5234375 C-27.74755755 18.0203689 -30.37500926 16.51243714 -33 15 C-31.26805448 9.80416343 -25.78522901 8.18381352 -21.14575195 5.68237305 C-19.32477801 4.69416306 -17.52331677 3.67552323 -15.72070312 2.65429688 C-14.57150391 2.02974609 -13.42230469 1.40519531 -12.23828125 0.76171875 C-11.18680908 0.18381592 -10.13533691 -0.39408691 -9.05200195 -0.98950195 C-5.17104296 -2.2744623 -3.66992869 -1.68719824 0 0 Z " fill="#7D4FFE" transform="translate(60,25)"/>
<path d="M0 0 C1.64548828 0.84884766 1.64548828 0.84884766 3.32421875 1.71484375 C4.77848273 2.45604926 6.23291893 3.19691695 7.6875 3.9375 C8.40873047 4.31068359 9.12996094 4.68386719 9.87304688 5.06835938 C15.19282308 7.96575824 15.19282308 7.96575824 21 9 C23.91468075 7.78488162 26.5587565 6.20580426 29.25 4.5625 C36.9513373 0 36.9513373 0 38 0 C38 3.63 38 7.26 38 11 C35.13793799 12.73403757 32.26376785 14.43652639 29.375 16.125 C28.56675781 16.61871094 27.75851563 17.11242187 26.92578125 17.62109375 C20.86289957 21.12080594 20.86289957 21.12080594 16.875 20.5625 C15.92625 20.046875 14.9775 19.53125 14 19 C13.12335693 18.53762939 13.12335693 18.53762939 12.22900391 18.06591797 C10.33313837 17.04476387 8.47889103 15.97030514 6.625 14.875 C5.98433594 14.50246094 5.34367187 14.12992188 4.68359375 13.74609375 C3.11951523 12.83565998 1.55934466 11.91851809 0 11 C0 7.37 0 3.74 0 0 Z " fill="#8154FE" transform="translate(36,50)"/>
</svg>
